<svg id="svg" version="1.1" xmlns="http://www.w3.org/2000/svg" xmlns:xlink="http://www.w3.org/1999/xlink" width="400" height="400" viewBox="0, 0, 400,400"><g id="svgg"><path id="path0" d="M182.330 107.303 C 171.591 108.076,162.221 115.452,158.726 125.885 L 157.978 128.119 148.231 128.238 C 138.337 128.359,137.830 128.395,134.961 129.167 C 134.026 129.419,134.030 129.407,134.635 130.200 C 135.640 131.518,136.852 134.750,136.852 136.113 C 136.852 136.826,136.944 136.851,138.484 136.551 C 139.492 136.356,142.017 136.289,148.608 136.283 L 157.390 136.276 157.390 152.063 C 157.391 169.074,157.409 169.443,158.425 172.942 C 159.775 177.593,162.558 182.098,166.049 185.284 C 168.435 187.462,169.480 187.297,152.734 187.383 C 138.943 187.453,138.424 187.469,136.638 187.872 C 131.924 188.937,129.082 190.291,124.562 193.629 C 124.181 193.910,123.507 192.193,122.995 189.635 C 122.717 188.250,122.618 155.296,122.885 153.031 L 123.025 151.839 122.309 151.732 C 119.987 151.383,118.544 150.978,117.115 150.274 C 116.236 149.841,115.472 149.531,115.418 149.586 C 114.659 150.344,114.493 188.594,115.235 191.747 C 115.790 194.108,116.838 197.054,117.751 198.823 L 118.609 200.484 117.648 202.401 C 116.595 204.501,115.768 206.893,115.226 209.410 C 114.485 212.849,114.760 251.796,115.522 251.392 C 118.403 249.868,120.573 249.148,122.310 249.140 L 123.027 249.136 122.886 247.937 C 122.808 247.277,122.745 239.050,122.745 229.655 C 122.745 211.380,122.732 211.646,123.731 208.586 L 124.218 207.094 124.729 207.493 C 128.298 210.278,132.121 212.092,136.564 213.109 C 138.209 213.486,138.983 213.508,152.638 213.577 C 169.494 213.663,168.436 213.497,166.049 215.676 C 162.558 218.862,159.775 223.367,158.425 228.017 C 157.409 231.517,157.391 231.885,157.390 248.896 L 157.390 264.683 148.608 264.680 C 141.656 264.677,139.552 264.618,138.506 264.397 C 136.995 264.077,136.852 264.117,136.852 264.866 C 136.852 266.048,135.547 269.406,134.525 270.855 C 134.056 271.519,134.059 271.530,134.789 271.761 C 137.204 272.527,138.518 272.621,148.327 272.732 L 157.978 272.841 158.726 275.074 C 162.428 286.124,172.681 293.666,184.002 293.666 L 186.380 293.666 186.264 293.138 C 186.200 292.848,186.109 292.487,186.061 292.336 C 185.769 291.415,186.028 287.651,186.488 286.132 C 186.580 285.829,186.415 285.797,184.779 285.797 C 177.283 285.797,169.985 281.180,167.095 274.610 C 166.204 272.584,165.706 272.809,171.348 272.687 C 177.972 272.545,180.526 272.016,184.933 269.875 C 192.470 266.214,198.381 258.358,199.646 250.323 C 199.880 248.837,200.192 248.377,200.192 249.519 C 200.192 253.741,204.317 261.537,208.662 265.524 C 214.153 270.564,219.618 272.515,228.748 272.695 C 234.376 272.806,233.923 272.495,232.497 275.279 C 229.125 281.857,222.579 285.797,215.020 285.797 L 213.007 285.797 213.124 286.324 C 213.584 288.395,213.692 290.126,213.469 291.886 C 213.184 294.148,212.839 293.952,216.646 293.698 C 228.789 292.888,239.171 284.604,241.684 273.719 L 241.909 272.745 250.465 272.743 C 259.024 272.742,261.195 272.630,263.941 272.049 C 265.895 271.636,265.982 271.572,265.503 270.893 C 264.455 269.410,263.148 266.064,263.148 264.866 C 263.148 264.117,263.005 264.077,261.494 264.397 C 260.448 264.618,258.345 264.677,251.400 264.680 L 242.626 264.683 242.561 248.129 L 242.496 231.574 241.996 229.559 C 240.707 224.362,238.310 220.084,234.612 216.377 C 231.577 213.336,230.342 213.628,246.232 213.624 C 265.100 213.619,267.738 213.105,274.321 208.153 L 275.717 207.102 276.141 208.235 C 277.264 211.239,277.255 211.067,277.255 229.463 C 277.255 238.752,277.191 246.967,277.113 247.717 L 276.970 249.081 278.289 249.204 C 279.948 249.358,281.699 249.905,283.288 250.766 C 283.967 251.134,284.550 251.407,284.584 251.373 C 285.418 250.539,285.495 212.568,284.670 208.932 C 284.132 206.561,283.124 203.807,282.110 201.938 L 281.340 200.517 282.109 199.059 C 283.166 197.055,284.152 194.322,284.681 191.930 L 285.125 189.923 285.125 171.113 C 285.125 152.854,285.030 149.520,284.513 149.520 C 284.459 149.520,283.711 149.867,282.851 150.291 C 281.453 150.979,280.012 151.381,277.667 151.736 C 276.948 151.845,276.931 151.866,277.068 152.460 C 277.314 153.526,277.404 185.653,277.167 187.955 C 276.981 189.764,276.256 192.873,275.850 193.598 C 275.747 193.781,275.300 193.542,274.186 192.708 C 271.279 190.531,267.344 188.779,263.298 187.860 C 261.590 187.472,260.928 187.452,247.188 187.382 C 230.214 187.297,231.596 187.604,234.612 184.582 C 238.310 180.876,240.707 176.598,241.996 171.401 L 242.496 169.386 242.561 152.831 L 242.626 136.276 251.400 136.283 C 257.984 136.289,260.508 136.356,261.516 136.551 C 263.056 136.851,263.148 136.826,263.148 136.113 C 263.148 134.738,264.361 131.517,265.385 130.175 C 265.985 129.387,265.996 129.398,264.163 128.961 C 261.591 128.347,259.147 128.215,250.385 128.215 L 241.885 128.215 241.752 127.495 C 241.116 124.070,238.238 118.924,235.148 115.686 C 229.721 109.998,222.685 107.128,214.104 107.103 L 213.526 107.102 213.524 109.549 C 213.523 111.353,213.432 112.299,213.176 113.148 C 212.499 115.395,212.310 115.163,214.828 115.163 C 223.241 115.163,231.306 120.618,233.484 127.783 L 233.615 128.215 229.852 128.215 C 220.314 128.215,214.294 130.266,208.662 135.435 C 204.317 139.423,200.192 147.219,200.192 151.441 C 200.192 152.583,199.880 152.123,199.646 150.637 C 198.183 141.341,190.732 132.699,181.574 129.675 C 178.364 128.616,176.704 128.388,171.348 128.273 C 165.706 128.151,166.204 128.376,167.095 126.350 C 170.020 119.701,177.274 115.163,184.978 115.163 C 186.816 115.163,186.978 115.134,186.856 114.827 C 186.115 112.954,185.710 109.142,186.090 107.626 C 186.242 107.022,186.238 107.022,182.330 107.303 M176.682 136.638 C 184.617 138.276,190.788 144.851,191.931 152.884 C 192.066 153.836,192.127 156.583,192.091 160.149 L 192.035 165.884 190.211 166.394 C 183.289 168.328,176.655 172.786,172.041 178.601 L 171.434 179.367 170.919 178.887 C 169.160 177.250,167.038 173.693,166.161 170.913 C 165.303 168.192,165.259 167.241,165.259 151.330 L 165.259 136.276 170.106 136.279 C 174.076 136.281,175.265 136.346,176.682 136.638 M234.697 152.159 L 234.636 168.042 234.130 169.888 C 233.248 173.107,231.695 175.977,229.571 178.311 L 228.611 179.367 227.904 178.503 C 223.145 172.692,216.332 168.175,209.526 166.318 L 207.965 165.892 207.915 159.715 C 207.836 150.125,208.991 146.460,213.522 141.929 C 217.853 137.599,221.502 136.337,229.807 136.299 L 234.757 136.276 234.697 152.159 M206.355 172.420 C 232.456 178.629,236.875 213.857,213.085 226.077 C 190.496 237.680,164.851 215.937,172.593 191.747 C 177.100 177.665,192.161 169.044,206.355 172.420 M164.741 196.401 C 164.549 197.708,164.550 203.256,164.742 204.566 L 164.890 205.581 151.687 205.523 L 138.484 205.465 136.770 204.931 C 133.880 204.030,129.129 201.276,129.090 200.480 C 129.060 199.864,133.545 197.141,135.893 196.350 C 138.558 195.452,138.935 195.431,152.262 195.412 L 164.888 195.393 164.741 196.401 M262.860 195.941 C 265.539 196.710,268.402 198.227,270.428 199.951 L 271.087 200.511 269.852 201.492 C 268.227 202.784,265.390 204.259,263.244 204.927 L 261.516 205.465 248.306 205.523 L 235.095 205.581 235.243 204.470 C 235.433 203.035,235.433 197.925,235.243 196.490 L 235.095 195.378 248.210 195.439 C 261.230 195.499,261.335 195.503,262.860 195.941 M172.475 222.889 C 175.571 226.848,180.637 230.724,185.577 232.914 C 187.111 233.595,191.589 235.125,192.046 235.125 C 192.287 235.125,192.113 247.077,191.849 248.583 C 190.464 256.493,184.469 262.714,176.684 264.321 C 175.265 264.614,174.077 264.679,170.106 264.681 L 165.259 264.683 165.259 249.630 C 165.259 230.324,165.438 229.148,169.109 224.254 C 171.295 221.340,171.271 221.350,172.475 222.889 M229.867 222.985 C 231.970 225.462,233.267 227.922,234.130 231.071 L 234.636 232.917 234.697 248.818 L 234.758 264.718 229.231 264.638 C 221.213 264.522,217.682 263.257,213.478 258.995 C 208.966 254.419,207.836 250.816,207.915 241.244 L 207.965 235.066 209.597 234.631 C 216.394 232.815,223.172 228.355,227.587 222.793 C 228.666 221.434,228.541 221.423,229.867 222.985 " stroke="none" fill="#0c8484" fill-rule="evenodd"></path><path id="path1" d="M197.309 100.199 C 189.972 101.942,187.464 111.689,193.017 116.883 C 198.535 122.045,207.581 119.373,209.301 112.074 C 210.993 104.897,204.519 98.486,197.309 100.199 M121.209 128.222 C 112.931 129.920,110.499 140.774,117.279 145.766 C 123.190 150.117,131.610 146.721,132.829 139.496 C 133.965 132.757,127.882 126.855,121.209 128.222 M274.760 128.234 C 268.508 129.493,265.225 136.551,268.162 142.419 C 271.350 148.789,280.482 149.527,284.729 143.757 C 290.081 136.488,283.633 126.447,274.760 128.234 M195.393 179.059 C 175.298 183.498,171.835 210.848,190.201 220.066 C 207.454 228.724,226.738 212.078,220.785 193.666 C 217.406 183.217,206.077 176.700,195.393 179.059 M120.588 253.463 C 113.347 255.413,110.893 264.633,116.204 269.937 C 120.890 274.617,129.039 273.287,131.927 267.370 C 135.639 259.763,128.718 251.273,120.588 253.463 M274.302 253.470 C 267.010 255.431,264.569 264.681,269.950 269.962 C 275.229 275.143,284.199 272.826,286.296 265.739 C 288.443 258.484,281.618 251.503,274.302 253.470 M197.889 280.445 C 193.388 281.170,190.019 285.310,190.019 290.115 C 190.019 298.940,200.401 303.265,206.640 297.040 C 213.516 290.179,207.561 278.888,197.889 280.445 " stroke="none" fill="#84ac44" fill-rule="evenodd"></path><path id="path2" d="" stroke="none" fill="#289888" fill-rule="evenodd"></path><path id="path3" d="" stroke="none" fill="#289888" fill-rule="evenodd"></path><path id="path4" d="" stroke="none" fill="#289888" fill-rule="evenodd"></path></g></svg>