<svg id="svg" version="1.1" xmlns="http://www.w3.org/2000/svg" xmlns:xlink="http://www.w3.org/1999/xlink" width="400" height="400" viewBox="0, 0, 400,400"><g id="svgg"><path id="path0" d="M191.602 121.710 C 187.463 122.400,183.802 125.491,182.590 129.319 L 182.272 130.326 178.708 130.328 C 175.374 130.329,172.832 130.552,172.509 130.870 C 172.432 130.946,172.584 131.431,172.845 131.947 C 173.107 132.464,173.321 133.038,173.321 133.222 C 173.321 133.992,173.494 134.117,174.338 133.954 C 174.781 133.868,176.677 133.794,178.551 133.790 L 181.958 133.781 181.958 140.315 C 181.958 149.350,182.608 151.864,185.598 154.380 C 185.919 154.649,186.180 154.910,186.180 154.960 C 186.180 155.010,183.352 155.085,179.894 155.126 L 173.608 155.201 172.035 155.742 C 171.170 156.039,169.961 156.614,169.348 157.019 L 168.234 157.756 167.946 157.141 C 167.705 156.625,167.658 155.223,167.658 148.408 L 167.658 140.290 167.179 140.200 C 166.915 140.150,166.310 139.976,165.835 139.812 C 165.360 139.648,164.833 139.470,164.664 139.416 C 163.426 139.020,163.941 157.067,165.243 159.691 C 165.755 160.724,165.760 160.763,165.433 161.303 C 164.275 163.218,164.203 163.899,164.203 173.033 C 164.203 182.612,164.169 182.322,165.255 181.768 C 165.679 181.552,166.393 181.324,166.842 181.263 L 167.658 181.151 167.658 173.253 C 167.658 167.143,167.718 165.151,167.921 164.452 L 168.183 163.550 168.880 164.108 C 171.115 165.898,172.807 166.219,180.016 166.219 C 183.266 166.219,185.979 166.274,186.046 166.340 C 186.113 166.407,185.649 167.028,185.015 167.719 C 182.322 170.658,181.966 172.206,181.961 180.964 L 181.958 187.551 177.729 187.489 L 173.501 187.428 173.299 188.196 C 173.188 188.618,172.890 189.321,172.638 189.758 L 172.178 190.552 173.026 190.765 C 173.520 190.890,175.626 190.979,178.072 190.979 L 182.269 190.979 182.622 192.158 C 183.886 196.376,188.518 199.808,192.949 199.808 L 194.192 199.808 194.169 198.608 C 194.156 197.949,194.210 197.182,194.287 196.906 L 194.429 196.402 192.940 196.316 C 190.380 196.168,188.160 194.855,186.730 192.642 C 185.645 190.964,185.632 190.979,188.155 190.979 C 193.887 190.979,198.993 187.106,199.729 182.201 L 199.866 181.289 200.195 182.494 C 201.652 187.815,205.974 190.979,211.787 190.979 L 214.018 190.979 213.528 191.945 C 212.194 194.579,209.419 196.353,206.635 196.353 L 205.461 196.353 205.466 198.080 L 205.470 199.807 206.821 199.808 C 211.333 199.809,215.570 196.727,217.182 192.271 L 217.615 191.075 222.195 190.963 C 225.954 190.870,227.657 190.733,227.637 190.525 C 227.635 190.511,227.376 189.990,227.061 189.368 C 226.746 188.746,226.488 188.055,226.488 187.833 C 226.488 187.431,226.455 187.429,222.169 187.492 L 217.850 187.556 217.847 180.774 C 217.844 172.011,217.517 170.616,214.786 167.696 C 214.153 167.020,213.692 166.411,213.760 166.343 C 213.828 166.275,216.599 166.219,219.918 166.219 C 227.196 166.219,228.075 166.051,231.044 164.098 L 231.666 163.688 231.908 164.234 C 232.090 164.645,232.150 166.798,232.150 172.965 L 232.150 181.151 232.966 181.263 C 233.415 181.324,234.136 181.555,234.568 181.776 C 235.660 182.333,235.598 182.786,235.665 173.737 C 235.731 164.810,235.672 164.083,234.711 161.973 L 234.132 160.703 234.506 159.958 C 235.609 157.762,235.605 157.813,235.605 148.337 C 235.605 143.516,235.542 139.509,235.466 139.433 C 235.391 139.357,234.915 139.469,234.411 139.682 C 233.906 139.894,233.191 140.122,232.821 140.188 L 232.150 140.307 232.150 148.512 C 232.150 154.643,232.089 156.854,231.911 157.256 L 231.672 157.793 230.801 157.194 C 228.239 155.432,227.229 155.239,220.010 155.138 C 216.605 155.090,213.820 155.006,213.820 154.951 C 213.820 154.897,214.253 154.378,214.782 153.799 C 215.927 152.547,216.591 151.456,217.255 149.735 L 217.746 148.464 217.810 141.104 L 217.875 133.743 221.845 133.824 C 224.029 133.869,225.967 133.973,226.152 134.056 C 226.430 134.180,226.488 134.108,226.488 133.637 C 226.488 133.324,226.734 132.578,227.036 131.979 C 227.338 131.381,227.521 130.852,227.442 130.803 C 227.017 130.540,224.242 130.333,221.089 130.330 L 217.514 130.326 217.401 129.760 C 216.592 125.716,211.941 122.004,207.160 121.587 L 205.620 121.452 205.520 122.866 C 205.465 123.644,205.357 124.431,205.281 124.616 C 205.162 124.903,205.252 124.952,205.903 124.952 C 208.871 124.952,211.701 126.485,213.254 128.934 C 214.101 130.270,214.061 130.325,212.236 130.333 C 206.147 130.359,201.342 133.844,200.169 139.086 L 199.926 140.174 199.673 139.060 C 198.513 133.954,194.230 130.674,188.340 130.384 C 187.047 130.320,185.989 130.216,185.990 130.153 C 186.024 128.016,190.622 124.952,193.797 124.952 L 194.451 124.952 194.299 124.232 C 194.215 123.836,194.146 123.059,194.146 122.505 L 194.146 121.497 193.378 121.520 C 192.956 121.532,192.157 121.618,191.602 121.710 M189.835 133.975 C 192.841 134.545,195.294 136.679,196.158 139.479 C 196.700 141.234,196.738 146.255,196.209 146.260 C 194.772 146.274,191.131 148.399,189.193 150.354 C 187.696 151.864,187.709 151.866,186.620 150.061 C 185.504 148.210,185.413 147.468,185.413 140.267 L 185.413 133.781 187.114 133.781 C 188.050 133.781,189.274 133.868,189.835 133.975 M214.356 140.845 L 214.299 147.910 213.591 149.343 C 213.201 150.131,212.665 150.979,212.400 151.229 L 211.918 151.682 210.919 150.589 C 209.197 148.705,206.447 147.001,204.198 146.424 L 203.263 146.185 203.265 143.582 C 203.271 137.005,206.239 133.873,212.533 133.802 L 214.413 133.781 214.356 140.845 M202.638 149.041 C 211.665 151.169,214.981 162.533,208.477 169.050 C 201.640 175.900,190.245 172.541,188.186 163.068 C 186.381 154.767,194.305 147.076,202.638 149.041 M185.125 160.663 L 185.125 162.784 179.367 162.726 L 173.608 162.668 172.361 162.058 C 171.675 161.722,170.907 161.281,170.655 161.077 L 170.197 160.707 171.039 160.132 C 173.119 158.713,173.911 158.576,180.134 158.557 L 185.125 158.541 185.125 160.663 M226.899 159.086 C 227.495 159.321,228.353 159.782,228.806 160.110 L 229.630 160.707 229.162 161.091 C 228.905 161.303,228.133 161.744,227.447 162.072 L 226.200 162.668 220.489 162.726 L 214.779 162.785 214.779 160.646 L 214.779 158.506 220.298 158.582 C 225.453 158.653,225.887 158.686,226.899 159.086 M192.802 173.831 C 193.647 174.267,194.842 174.780,195.457 174.972 L 196.577 175.320 196.513 178.399 C 196.384 184.601,193.557 187.524,187.686 187.524 L 185.413 187.524 185.413 181.134 C 185.413 173.453,185.611 172.335,187.321 170.387 L 187.884 169.747 189.575 171.392 C 190.797 172.581,191.694 173.258,192.802 173.831 M212.506 170.393 C 214.245 172.286,214.395 173.127,214.395 180.956 L 214.395 187.562 211.842 187.495 C 205.983 187.342,203.263 184.279,203.263 177.836 L 203.263 175.331 204.887 174.779 C 206.946 174.080,209.175 172.657,210.653 171.099 C 211.999 169.679,211.888 169.721,212.506 170.393 M139.662 224.616 C 139.515 224.959,135.962 233.057,131.767 242.610 C 127.571 252.164,124.095 260.134,124.042 260.321 C 123.952 260.639,124.168 260.658,127.347 260.609 L 130.748 260.557 132.601 256.189 L 134.453 251.822 142.980 251.871 L 151.506 251.919 153.337 256.286 L 155.168 260.653 158.694 260.653 C 160.633 260.653,162.191 260.578,162.156 260.486 C 162.121 260.395,158.508 252.147,154.127 242.157 L 146.161 223.995 143.045 223.994 L 139.928 223.992 139.662 224.616 M197.313 242.302 L 197.313 260.653 200.576 260.653 L 203.839 260.653 203.839 254.319 L 203.839 247.985 207.821 247.994 L 211.804 248.004 216.219 254.322 L 220.633 260.639 224.520 260.646 C 226.658 260.650,228.407 260.606,228.407 260.549 C 228.407 260.492,226.244 257.405,223.600 253.689 C 219.028 247.262,218.815 246.924,219.234 246.765 C 225.008 244.564,227.408 241.090,227.210 235.221 C 227.045 230.345,224.892 227.133,220.579 225.330 C 217.893 224.207,217.275 224.149,206.862 224.046 L 197.313 223.952 197.313 242.302 M251.631 242.322 L 251.631 260.653 254.894 260.653 L 258.157 260.653 258.157 253.263 L 258.157 245.873 267.370 245.873 L 276.583 245.873 276.583 242.898 L 276.583 239.923 267.370 239.923 L 258.157 239.923 258.157 235.029 L 258.157 230.134 268.618 230.134 L 279.079 230.134 279.079 227.063 L 279.079 223.992 265.355 223.992 L 251.631 223.992 251.631 242.322 M85.797 242.414 L 85.797 260.653 88.962 260.653 L 92.128 260.653 92.177 247.857 L 92.226 235.061 102.165 247.857 L 112.103 260.653 114.881 260.653 L 117.658 260.653 117.658 242.418 L 117.658 224.184 114.493 224.184 L 111.327 224.184 111.278 236.615 L 111.228 249.046 101.615 236.663 L 92.001 224.280 88.899 224.227 L 85.797 224.175 85.797 242.414 M160.845 227.159 L 160.845 230.134 166.699 230.134 L 172.553 230.134 172.553 245.393 L 172.553 260.653 175.816 260.653 L 179.079 260.653 179.079 245.393 L 179.079 230.134 184.933 230.134 L 190.787 230.134 190.787 227.159 L 190.787 224.184 175.816 224.184 L 160.845 224.184 160.845 227.159 M235.509 242.418 L 235.509 260.653 238.772 260.653 L 242.035 260.653 242.035 242.418 L 242.035 224.184 238.772 224.184 L 235.509 224.184 235.509 242.418 M282.593 225.188 C 282.952 225.744,286.237 230.753,289.895 236.319 L 296.545 246.438 296.545 253.545 L 296.545 260.653 299.808 260.653 L 303.071 260.653 303.073 253.503 L 303.074 246.353 310.185 235.605 C 314.096 229.693,317.380 224.705,317.484 224.520 C 317.660 224.205,317.434 224.184,313.862 224.184 L 310.052 224.184 304.978 232.130 L 299.904 240.076 299.520 239.483 C 299.309 239.156,297.053 235.602,294.507 231.585 L 289.877 224.280 285.909 224.228 L 281.941 224.176 282.593 225.188 M215.377 230.325 C 222.853 231.700,222.215 241.038,214.577 242.029 C 213.791 242.131,211.053 242.217,208.493 242.221 L 203.839 242.226 203.839 236.180 L 203.839 230.134 209.091 230.134 C 211.980 230.134,214.808 230.220,215.377 230.325 M146.150 239.299 L 149.089 246.065 142.959 246.065 C 139.588 246.065,136.864 246.000,136.907 245.921 C 136.950 245.842,138.314 242.681,139.939 238.897 C 141.893 234.346,142.947 232.104,143.052 232.275 C 143.139 232.417,144.533 235.578,146.150 239.299 M176.775 269.578 L 176.775 270.633 177.927 270.633 L 179.079 270.633 179.079 269.578 L 179.079 268.522 177.927 268.522 L 176.775 268.522 176.775 269.578 M202.687 273.704 L 202.687 278.887 203.839 278.887 C 204.695 278.887,204.990 278.818,204.990 278.620 C 204.990 278.408,205.140 278.429,205.703 278.716 C 208.851 280.321,211.958 276.382,210.211 273.001 C 209.368 271.370,207.174 270.676,205.668 271.564 L 204.990 271.964 204.990 270.243 L 204.990 268.522 203.839 268.522 L 202.687 268.522 202.687 273.704 M213.628 273.704 L 213.628 278.887 214.779 278.887 L 215.931 278.887 215.931 273.704 L 215.931 268.522 214.779 268.522 L 213.628 268.522 213.628 273.704 M113.682 273.896 L 111.563 278.887 112.765 278.887 L 113.967 278.887 114.395 277.831 L 114.824 276.775 116.866 276.775 L 118.909 276.775 119.297 277.783 L 119.686 278.791 120.956 278.847 L 122.227 278.903 120.095 273.905 L 117.963 268.906 116.882 268.906 L 115.802 268.906 113.682 273.896 M132.140 269.176 C 129.654 270.259,129.878 273.838,132.481 274.631 C 132.827 274.736,133.610 274.972,134.222 275.156 C 135.538 275.551,135.915 276.028,135.380 276.619 C 134.875 277.177,133.208 277.033,132.113 276.337 L 131.308 275.825 130.628 276.620 C 129.826 277.557,129.880 277.680,131.423 278.435 C 134.572 279.976,137.854 278.745,137.894 276.008 C 137.919 274.368,136.998 273.467,134.683 272.871 C 133.570 272.584,132.630 272.102,132.630 271.817 C 132.630 270.901,134.100 270.668,135.521 271.359 C 136.627 271.897,136.520 271.920,137.122 271.011 C 137.732 270.089,137.677 269.964,136.397 269.368 C 135.263 268.840,133.132 268.744,132.140 269.176 M235.317 273.896 L 235.317 278.887 236.468 278.887 L 237.620 278.887 237.620 276.967 L 237.620 275.048 239.923 275.048 L 242.226 275.048 242.226 273.992 L 242.226 272.937 239.923 272.937 L 237.620 272.937 237.620 271.977 L 237.620 271.017 240.307 271.017 L 242.994 271.017 242.994 269.962 L 242.994 268.906 239.155 268.906 L 235.317 268.906 235.317 273.896 M159.885 270.250 C 159.885 271.081,159.834 271.209,159.501 271.209 C 159.164 271.209,159.117 271.337,159.117 272.265 C 159.117 273.193,159.164 273.321,159.501 273.321 C 159.857 273.321,159.885 273.449,159.886 275.096 C 159.888 278.101,160.433 279.079,162.106 279.079 C 163.587 279.079,163.916 278.843,163.916 277.778 L 163.916 276.853 163.222 276.934 C 162.304 277.041,162.195 276.824,162.191 274.904 L 162.188 273.321 163.148 273.321 L 164.107 273.321 164.107 272.265 L 164.107 271.209 163.148 271.209 L 162.188 271.209 162.188 270.250 L 162.188 269.290 161.036 269.290 L 159.885 269.290 159.885 270.250 M256.238 270.250 C 256.238 271.081,256.187 271.209,255.854 271.209 C 255.517 271.209,255.470 271.337,255.470 272.265 C 255.470 273.193,255.517 273.321,255.854 273.321 C 256.210 273.321,256.238 273.449,256.239 275.096 C 256.241 278.101,256.786 279.079,258.459 279.079 C 259.940 279.079,260.269 278.843,260.269 277.778 L 260.269 276.853 259.575 276.934 C 258.658 277.041,258.548 276.824,258.544 274.904 L 258.541 273.321 259.501 273.321 L 260.461 273.321 260.461 272.265 L 260.461 271.209 259.501 271.209 L 258.541 271.209 258.541 270.250 L 258.541 269.290 257.390 269.290 L 256.238 269.290 256.238 270.250 M140.916 274.232 C 140.991 277.612,141.178 278.249,142.262 278.809 C 143.102 279.243,144.580 279.087,145.208 278.497 L 145.681 278.052 145.681 278.469 C 145.681 278.852,145.779 278.887,146.833 278.887 L 147.985 278.887 147.985 275.048 L 147.985 271.209 146.833 271.209 L 145.681 271.209 145.681 273.662 C 145.681 276.409,145.492 276.970,144.567 276.964 C 143.418 276.958,143.186 276.381,143.186 273.525 L 143.186 271.209 142.018 271.209 L 140.849 271.209 140.916 274.232 M152.076 271.584 C 150.103 272.786,150.758 275.174,153.293 276.018 C 153.978 276.245,154.588 276.561,154.648 276.719 C 154.924 277.437,153.449 277.463,152.244 276.761 C 151.449 276.298,151.542 276.277,151.071 277.038 C 150.392 278.138,151.191 278.831,153.365 279.028 C 157.080 279.365,158.308 275.486,154.841 274.368 C 153.386 273.899,152.892 273.556,153.178 273.212 C 153.486 272.840,154.062 272.872,155.039 273.316 L 155.856 273.686 156.239 272.935 C 156.735 271.962,156.753 272.018,155.806 271.588 C 154.699 271.086,152.896 271.083,152.076 271.584 M168.138 271.424 C 166.803 271.820,166.969 273.658,168.313 273.371 C 169.656 273.085,170.646 273.199,171.039 273.683 C 171.581 274.353,171.516 274.395,170.060 274.313 C 167.791 274.185,166.725 274.775,166.498 276.286 C 166.175 278.439,168.541 279.811,170.689 278.716 C 171.252 278.429,171.401 278.408,171.401 278.620 C 171.401 278.815,171.683 278.887,172.457 278.887 L 173.512 278.887 173.512 276.152 C 173.512 273.132,173.328 272.458,172.300 271.704 C 171.673 271.244,169.287 271.084,168.138 271.424 M176.775 275.048 L 176.775 278.887 177.927 278.887 L 179.079 278.887 179.079 275.048 L 179.079 271.209 177.927 271.209 L 176.775 271.209 176.775 275.048 M182.534 275.048 L 182.534 278.887 183.685 278.887 L 184.837 278.887 184.837 276.405 C 184.837 273.615,184.956 273.321,186.091 273.321 C 187.017 273.321,187.140 273.692,187.140 276.475 L 187.140 278.887 188.292 278.887 L 189.443 278.887 189.443 275.902 C 189.443 272.592,189.293 272.015,188.298 271.500 C 187.462 271.068,185.959 271.122,185.343 271.607 L 184.837 272.005 184.837 271.607 C 184.837 271.249,184.722 271.209,183.685 271.209 L 182.534 271.209 182.534 275.048 M194.050 271.424 C 192.715 271.820,192.880 273.658,194.225 273.371 C 195.567 273.085,196.558 273.199,196.951 273.683 C 197.493 274.353,197.428 274.395,195.972 274.313 C 193.703 274.185,192.636 274.775,192.410 276.286 C 192.087 278.439,194.453 279.811,196.600 278.716 C 197.163 278.429,197.313 278.408,197.313 278.620 C 197.313 278.815,197.594 278.887,198.369 278.887 L 199.424 278.887 199.424 276.152 C 199.424 273.132,199.240 272.458,198.212 271.704 C 197.585 271.244,195.199 271.084,194.050 271.424 M220.873 271.596 C 218.478 272.895,218.369 276.925,220.687 278.513 C 221.957 279.383,224.372 279.243,225.624 278.226 L 226.200 277.758 225.576 277.127 L 224.953 276.496 224.267 276.865 C 223.357 277.355,222.357 277.313,221.769 276.761 C 221.023 276.059,221.171 276.008,223.919 276.008 L 226.534 276.008 226.450 274.904 C 226.223 271.891,223.408 270.221,220.873 271.596 M245.715 274.232 C 245.789 277.612,245.976 278.249,247.060 278.809 C 247.900 279.243,249.378 279.087,250.006 278.497 L 250.480 278.052 250.480 278.469 C 250.480 278.852,250.577 278.887,251.631 278.887 L 252.783 278.887 252.783 275.048 L 252.783 271.209 251.631 271.209 L 250.480 271.209 250.480 273.662 C 250.480 276.409,250.291 276.970,249.365 276.964 C 248.216 276.958,247.985 276.381,247.985 273.525 L 247.985 271.209 246.816 271.209 L 245.648 271.209 245.715 274.232 M263.373 274.232 C 263.448 277.612,263.635 278.249,264.718 278.809 C 265.559 279.243,267.037 279.087,267.665 278.497 L 268.138 278.052 268.138 278.469 C 268.138 278.852,268.235 278.887,269.290 278.887 L 270.441 278.887 270.441 275.048 L 270.441 271.209 269.290 271.209 L 268.138 271.209 268.138 273.662 C 268.138 276.409,267.949 276.970,267.024 276.964 C 265.875 276.958,265.643 276.381,265.643 273.525 L 265.643 271.209 264.474 271.209 L 263.306 271.209 263.373 274.232 M273.704 275.048 L 273.704 278.887 274.856 278.887 L 276.008 278.887 276.008 276.886 C 276.008 274.577,276.380 273.832,277.651 273.594 L 278.311 273.470 278.311 272.339 C 278.311 270.997,277.707 270.773,276.598 271.706 L 276.008 272.203 276.008 271.706 C 276.008 271.227,275.967 271.209,274.856 271.209 L 273.704 271.209 273.704 275.048 M282.293 271.596 C 279.898 272.895,279.790 276.925,282.107 278.513 C 283.378 279.383,285.792 279.243,287.044 278.226 L 287.620 277.758 286.997 277.127 L 286.373 276.496 285.687 276.865 C 284.778 277.355,283.778 277.313,283.190 276.761 C 282.443 276.059,282.591 276.008,285.340 276.008 L 287.954 276.008 287.871 274.904 C 287.644 271.891,284.829 270.221,282.293 271.596 M117.532 273.464 L 118.015 274.664 116.857 274.664 C 115.830 274.664,115.713 274.626,115.833 274.328 C 115.907 274.143,116.146 273.535,116.363 272.976 C 116.816 271.811,116.876 271.836,117.532 273.464 M223.403 273.217 C 223.905 273.477,224.184 273.863,224.184 274.296 C 224.184 274.393,223.536 274.472,222.745 274.472 C 221.248 274.472,221.024 274.322,221.545 273.669 C 222.109 272.962,222.653 272.830,223.403 273.217 M284.823 273.217 C 285.325 273.477,285.605 273.863,285.605 274.296 C 285.605 274.393,284.957 274.472,284.165 274.472 C 282.668 274.472,282.444 274.322,282.965 273.669 C 283.529 272.962,284.074 272.830,284.823 273.217 M207.579 273.432 C 208.612 274.110,208.650 275.832,207.649 276.674 C 206.678 277.491,205.598 277.166,205.069 275.899 C 204.338 274.151,206.074 272.446,207.579 273.432 M171.350 275.893 C 171.655 276.198,171.077 277.061,170.395 277.321 C 169.122 277.805,168.107 276.659,169.146 275.909 C 169.566 275.606,171.052 275.595,171.350 275.893 M197.262 275.893 C 197.567 276.198,196.989 277.061,196.307 277.321 C 195.034 277.805,194.019 276.659,195.058 275.909 C 195.477 275.606,196.964 275.595,197.262 275.893 " stroke="none" fill="#0c8484" fill-rule="evenodd"></path><path id="path1" d="M198.944 118.600 C 195.119 119.570,194.440 124.637,197.904 126.363 C 202.134 128.471,206.046 123.323,202.849 119.855 C 201.853 118.775,200.266 118.265,198.944 118.600 M165.917 130.679 C 161.956 132.531,163.287 138.580,167.657 138.580 C 173.088 138.580,173.390 130.624,167.967 130.373 C 167.027 130.329,166.497 130.409,165.917 130.679 M230.518 130.632 C 228.831 131.363,227.949 132.845,228.057 134.764 C 228.348 139.924,235.951 139.924,236.242 134.764 C 236.421 131.603,233.366 129.399,230.518 130.632 M198.464 151.568 C 191.188 152.725,188.188 161.763,193.311 167.097 C 198.476 172.477,207.399 169.859,208.956 162.508 C 210.271 156.301,204.771 150.565,198.464 151.568 M166.221 182.978 C 164.141 183.641,162.945 186.516,163.892 188.580 C 165.969 193.106,172.852 190.880,171.775 186.030 C 171.220 183.531,168.749 182.173,166.221 182.978 M230.638 183.008 C 228.229 183.866,227.220 187.170,228.716 189.300 C 230.947 192.479,235.962 191.163,236.240 187.326 C 236.473 184.107,233.653 181.933,230.638 183.008 M198.432 194.343 C 197.203 194.734,196.069 196.030,195.765 197.391 C 195.027 200.688,198.384 203.483,201.452 202.125 C 206.351 199.958,203.540 192.718,198.432 194.343 " stroke="none" fill="#84ac44" fill-rule="evenodd"></path><path id="path2" d="" stroke="none" fill="#289888" fill-rule="evenodd"></path><path id="path3" d="" stroke="none" fill="#289888" fill-rule="evenodd"></path><path id="path4" d="" stroke="none" fill="#289888" fill-rule="evenodd"></path></g></svg>